<svg width="25" height="25" viewBox="0 0 25 25" fill="none" xmlns="http://www.w3.org/2000/svg">
<path d="M5.0769 20.0769C5.0769 20.6073 5.28762 21.116 5.66269 21.4911C6.03776 21.8662 6.54647 22.0769 7.0769 22.0769H17.0769C17.6073 22.0769 18.116 21.8662 18.4911 21.4911C18.8662 21.116 19.0769 20.6073 19.0769 20.0769V8.0769H21.0769V6.0769H17.0769V4.0769C17.0769 3.54647 16.8662 3.03776 16.4911 2.66269C16.116 2.28762 15.6073 2.0769 15.0769 2.0769H9.0769C8.54647 2.0769 8.03776 2.28762 7.66269 2.66269C7.28762 3.03776 7.0769 3.54647 7.0769 4.0769V6.0769H3.0769V8.0769H5.0769V20.0769ZM9.0769 4.0769H15.0769V6.0769H9.0769V4.0769ZM8.0769 8.0769H17.0769V20.0769H7.0769V8.0769H8.0769Z" fill="white"/>
<path d="M9.0769 10.0769H11.0769V18.0769H9.0769V10.0769ZM13.0769 10.0769H15.0769V18.0769H13.0769V10.0769Z" fill="white"/>
</svg>
