<svg width="246" height="246" viewBox="0 0 246 246" fill="none" xmlns="http://www.w3.org/2000/svg">
<rect width="246" height="246" rx="123" fill="#F2F2F2"/>
<g clip-path="url(#clip0_21_16)">
<path d="M120.085 192.671C125.655 194.414 129.274 198.711 128.167 202.267C127.061 205.823 121.649 207.292 116.076 205.547C113.841 204.881 111.797 203.687 110.116 202.066L86.6072 194.381L90.4375 183.39L113.206 192.134C115.509 191.759 117.868 191.943 120.085 192.671L120.085 192.671V192.671Z" fill="#FFB6B6"/>
<path d="M69.7221 112.032H69.7221C64.1165 111.366 58.9552 115.167 57.911 120.731C54.1863 140.58 46.2755 183.503 47.3173 184.548C48.6736 185.908 99.3073 200.875 99.3073 200.875L105.184 188.176L71.73 171.849L79.067 124.375C79.9984 118.348 75.7594 112.749 69.7221 112.032V112.032V112.032Z" fill="#DCDCDC"/>
<path d="M130.723 213.318C125.288 215.447 119.787 214.36 118.436 210.89C117.086 207.42 120.397 202.881 125.834 200.752C127.995 199.871 130.334 199.522 132.656 199.734L155.799 191.002L159.653 201.984L136.429 209.427C134.864 211.162 132.907 212.496 130.723 213.318H130.723V213.318Z" fill="#FFB6B6"/>
<path d="M164.097 119.058H164.097C169.646 118.016 175.05 121.46 176.465 126.942C181.51 146.495 192.279 188.787 191.309 189.9C190.047 191.348 140.53 209.694 140.53 209.694L133.816 197.421L166.101 178.875L155.6 132.003C154.267 126.053 158.122 120.181 164.097 119.058L164.097 119.058V119.058Z" fill="#DCDCDC"/>
<path d="M65.7512 114.883L68.5086 97.5948L49.8963 89.9879L47.1389 116.266L65.7512 114.883Z" fill="#FFB6B6"/>
<path d="M174.455 117.604L171.698 100.316L190.31 92.7091L193.068 118.987L174.455 117.604Z" fill="#FFB6B6"/>
<path d="M61.0477 103.152C71.5302 103.152 80.0279 94.6277 80.0279 84.112C80.0279 73.5963 71.5302 65.0717 61.0477 65.0717C50.5653 65.0717 42.0676 73.5963 42.0676 84.112C42.0676 94.6277 50.5653 103.152 61.0477 103.152Z" fill="#FFB6B6"/>
<path d="M59.533 58.5136C60.0822 58.8352 60.8179 58.3486 60.994 57.7356C61.1701 57.1226 60.9649 56.4717 60.7615 55.8673L59.7374 52.8245C59.0111 50.6665 58.2403 48.433 56.6673 46.7905C54.2931 44.3114 50.52 43.6807 47.1235 44.1376C42.7617 44.7243 38.458 47.0937 36.4299 51.0118C34.4018 54.9299 35.2652 60.397 38.9299 62.8415C33.707 68.8469 31.8863 75.5398 32.1738 83.5043C32.4613 91.4689 41.1132 98.799 46.7555 104.41C48.0155 103.643 49.161 100.053 48.4681 98.7481C47.7752 97.4436 48.768 95.9323 47.9099 94.7308C47.0517 93.5292 46.3338 95.4424 47.2013 94.2477C47.7488 93.4938 45.6122 91.7594 46.4259 91.3081C50.3617 89.1256 51.6708 84.2042 54.1428 80.4354C57.1244 75.8896 62.2276 72.8112 67.628 72.3004C70.6029 72.0191 73.7451 72.5287 76.1835 74.2612C78.622 75.9938 80.2006 79.0899 79.6351 82.0334C81.0995 80.5417 81.8285 78.3557 81.5536 76.2804C81.2786 74.205 80.0058 72.2859 78.2039 71.2298C79.2995 67.595 78.3609 63.4139 75.8178 60.6011C73.2747 57.7884 62.9586 58.2675 59.2459 59.0077" fill="#2F2E41"/>
<path d="M58.9564 72.4108C54.0391 72.9433 50.4886 77.2163 47.4905 81.1625C45.7625 83.437 43.9524 85.9488 43.9958 88.8082C44.0396 91.6992 45.9664 94.1789 46.8873 96.9186C48.3924 101.397 46.9255 106.725 43.3425 109.793C46.8829 110.467 50.7101 107.804 51.3213 104.242C52.0327 100.095 48.8989 96.0917 49.27 91.9C49.597 88.207 52.498 85.3648 54.9643 82.6035C57.4306 79.8423 59.7469 76.1782 58.6123 72.6497" fill="#2F2E41"/>
<path d="M67.9015 111.984L46.4132 106.088L24.2609 115.159L14.7671 190.443L69.0175 192.258V180.114C69.0175 180.114 78.5113 168.221 76.703 150.987L74.8946 133.753L67.9015 111.984H67.9015Z" fill="#DCDCDC"/>
<path d="M77.5217 142.356L35.2098 140L23.7316 174.156C23.7316 174.156 9.55265 194.649 7.30202 209.724C5.05139 224.8 6.40176 246 6.40176 246H74.1404L68.7442 181.328C68.7442 181.328 81.3425 152.72 79.8822 147.773C78.4219 142.827 77.5217 142.356 77.5217 142.356L77.5217 142.356V142.356Z" fill="#5800FF"/>
<path d="M45.283 106.315H34.885V144.865H45.283V106.315Z" fill="#5800FF"/>
<path d="M77.3812 114.932H66.9832V146.679H77.3812V114.932Z" fill="#5800FF"/>
<path d="M171.401 115.612L192.889 109.717L215.041 118.787L224.535 194.072L170.285 195.886V183.742C170.285 183.742 164.735 171.328 170.059 154.842C175.258 138.742 164.408 137.381 164.408 137.381L171.401 115.612V115.612V115.612Z" fill="#DCDCDC"/>
<path d="M161.469 146.225L203.965 143.958L215.494 176.838C215.494 176.838 222.501 199.287 224.761 213.8C227.022 228.313 232.899 246 232.899 246H164.865L162.826 186.135L161.469 146.225L161.469 146.225V146.225Z" fill="#5800FF"/>
<path d="M204.418 109.943H194.02V148.493H204.418V109.943Z" fill="#5800FF"/>
<path d="M172.319 118.56H161.921V150.307H172.319V118.56Z" fill="#5800FF"/>
<path d="M195.468 98.8137C204.751 89.5007 204.751 74.4014 195.468 65.0884C186.184 55.7754 171.133 55.7754 161.849 65.0884C152.566 74.4014 152.566 89.5007 161.849 98.8137C171.133 108.127 186.184 108.127 195.468 98.8137Z" fill="#FFB6B6"/>
<path d="M202.041 94.8877C202.041 94.8877 190.54 81.0426 185.94 82.1964C181.339 83.3501 184.215 85.0808 184.215 85.0808L172.714 72.3894C172.714 72.3894 163.513 68.9281 154.887 79.8889C154.887 79.8889 149.711 70.6588 154.887 65.4669C160.062 60.2749 161.788 60.8518 162.938 57.9674C164.088 55.083 172.139 52.7755 172.139 52.7755C172.139 52.7755 171.677 48.6238 174.208 50.6996C176.739 52.7755 183.06 52.7755 183.06 52.7755C183.06 52.7755 183.096 50.468 185.668 52.7755C188.24 55.083 191.115 53.9293 191.115 53.9293C191.115 53.9293 191.115 57.922 193.128 57.9447C195.141 57.9674 198.591 55.083 199.166 57.3905C199.741 59.6981 203.767 60.8518 204.342 67.7744C204.917 74.6969 202.041 94.8877 202.041 94.8877V94.8877Z" fill="#2F2E41"/>
<path d="M113.876 130.481L132.281 165.385L129.758 166.724L111.353 131.82C111.086 131.313 111.279 130.684 111.784 130.416L112.477 130.049C112.982 129.781 113.609 129.975 113.876 130.481V130.481V130.481Z" fill="#5800FF"/>
<path d="M144.539 178.577C139.856 177.365 134.958 179.51 132.608 183.75C129.666 189.059 126.305 193.414 127.43 183.034C128.669 171.607 121.986 162.377 127.238 159.59C132.49 156.803 137.913 165.273 146.449 172.942C154.36 180.049 149.798 179.937 144.539 178.577L144.539 178.577V178.577Z" fill="#5800FF"/>
<path d="M117.436 137.542C122.744 135.111 128.297 135.888 129.839 139.277C131.381 142.666 128.327 147.383 123.017 149.814C120.909 150.815 118.593 151.294 116.263 151.213L93.6427 161.229L89.1833 150.481L111.956 141.747C113.422 139.927 115.301 138.485 117.436 137.542V137.542V137.542Z" fill="#FFB6B6"/>
<path d="M26.2821 111.21L26.282 111.21C21.6646 114.467 20.3495 120.753 23.2742 125.597C33.706 142.872 56.371 180.132 57.8421 180.213C59.7573 180.318 107.421 157.562 107.421 157.562L103.349 144.171L67.5736 154.411L41.4531 114.145C38.1371 109.034 31.2552 107.702 26.2821 111.21V111.21V111.21Z" fill="#DCDCDC"/>
<path d="M119.698 191.147L180.84 158.702L188.345 172.936C194.82 185.214 190.139 200.456 177.9 206.951L161.111 215.86C148.871 222.355 133.678 217.659 127.203 205.381L119.698 191.147V191.147H119.698V191.147Z" fill="#00D7FF"/>
<path d="M171.499 212.956C166.191 215.388 160.638 214.612 159.096 211.224C157.554 207.835 160.606 203.117 165.916 200.685C168.024 199.684 170.34 199.204 172.67 199.286L195.289 189.266L199.75 200.014L176.978 208.751C175.513 210.571 173.634 212.013 171.499 212.956H171.499V212.956Z" fill="#FFB6B6"/>
<path d="M217.502 117.021H217.502C223.107 116.355 228.269 120.155 229.313 125.72C233.037 145.569 240.948 188.491 239.906 189.536C238.55 190.897 187.916 205.863 187.916 205.863L182.039 193.165L215.494 176.838L208.157 129.364C207.225 123.337 211.464 117.738 217.502 117.021V117.021V117.021Z" fill="#DCDCDC"/>
</g>
<defs>
<clipPath id="clip0_21_16">
<rect width="234" height="202" fill="white" transform="translate(6 44)"/>
</clipPath>
</defs>
</svg>
